<?xml version="1.0" standalone="no"?>
<!--
  pt-header-logo.svg
  Chỉ icon lục giác + 2 cá heo vàng (path 1 từ file vector gốc).
  Dùng cho header, footer, button, badge.
  Crop viewBox để chỉ hiện phần icon, không có chữ "PT".
-->
<svg version="1.0" xmlns="http://www.w3.org/2000/svg"
  viewBox="1200 590 470 410"
  preserveAspectRatio="xMidYMid meet">
<g transform="translate(0.000000,2480.000000) scale(0.100000,-0.100000)"
  fill="#000000" stroke="none">
<path d="M13293 18646 c-113 -36 -169 -90 -265 -256 -36 -63 -140 -243 -230
-400 -605 -1047 -575 -991 -588 -1069 -14 -84 -3 -156 36 -233 15 -29 118
-210 229 -403 657 -1137 623 -1082 681 -1134 30 -28 79 -60 112 -73 l57 -23
869 -3 c569 -2 888 1 925 8 74 14 150 53 200 104 23 24 107 158 202 321 89
154 281 487 427 740 146 253 274 481 284 508 23 60 24 179 2 244 -9 26 -80
158 -158 293 -78 135 -270 468 -427 740 -307 533 -328 563 -436 617 l-58 28
-910 2 c-733 1 -918 -1 -952 -11z m787 -343 c14 -9 72 -58 130 -108 58 -49
113 -96 122 -104 10 -7 60 -21 111 -31 113 -22 266 -72 324 -106 23 -13 66
-52 95 -85 29 -33 65 -67 81 -75 15 -8 121 -37 235 -65 279 -67 272 -64 272
-99 0 -16 -6 -32 -12 -37 -7 -4 -128 -6 -268 -5 l-255 4 -92 -36 c-51 -20
-125 -41 -165 -46 -40 -5 -233 -9 -428 -7 -306 2 -368 0 -447 -16 -244 -47
-411 -132 -550 -280 -72 -77 -118 -153 -164 -266 l-34 -84 -13 64 c-17 85 -19
338 -3 414 73 350 281 579 629 694 90 30 237 58 330 63 42 2 52 6 48 18 -3 8
-14 40 -25 70 -39 104 6 173 79 123z m230 -1188 c156 -33 200 -52 270 -119 63
-60 56 -57 205 -86 120 -24 155 -40 155 -71 0 -29 -31 -36 -160 -38 -149 -2
-166 -5 -282 -52 -80 -33 -115 -41 -186 -45 -141 -8 -150 -11 -166 -47 -7 -18
-27 -49 -44 -70 -34 -42 -141 -131 -185 -154 -51 -26 -74 2 -42 51 22 33 95
206 87 206 -4 0 -37 -7 -73 -14 -123 -26 -209 -88 -260 -186 -20 -38 -24 -60
-24 -140 0 -88 3 -101 33 -162 36 -74 102 -140 196 -196 64 -39 180 -88 232
-98 109 -20 -151 -44 -273 -25 -234 36 -452 182 -543 363 -193 386 31 798 490
899 127 28 398 21 570 -16z m583 -551 c-9 -151 -5 -202 20 -301 31 -116 34
-178 11 -231 -14 -34 -14 -38 2 -47 44 -26 72 -58 93 -107 69 -156 84 -181
168 -268 64 -67 84 -95 81 -112 -2 -19 -10 -23 -46 -26 -57 -4 -191 30 -270
69 -45 22 -89 57 -152 120 -50 51 -97 89 -108 89 -10 0 -45 -9 -78 -21 -298
-103 -563 -102 -804 4 l-53 24 149 0 c173 0 292 21 417 73 193 80 266 178 322
432 26 117 39 148 93 222 39 53 128 129 146 123 6 -2 10 -21 9 -43z"/>
</g>
</svg>
