<?xml version="1.0" encoding="UTF-8"?>
<!--
  pt-loader-logo-animated.svg
  Animated version for CinematicLoader.
  Groups separated for animation control:
    - g id="hexagon": Hexagon/flour icon
    - g id="wheat-stalk": Wheat stalk path (animated with stroke-dashoffset)
    - g id="text-pt": PT text elements
-->
<svg version="1.0" xmlns="http://www.w3.org/2000/svg"
  width="3508" height="2480" viewBox="0 0 3508 2480"
  preserveAspectRatio="xMidYMid meet">
  <!-- Hexagon group: flour icon with hexagon -->
  <g id="hexagon" fill="var(--pt-sage-500, #5d8a4d)" stroke="none">
    <g transform="translate(0.000000,2480.000000) scale(0.100000,-0.100000)">
      <!-- Main hexagon/flour shape -->
      <path d="M16223 11311 c-57 -19 -116 -57 -156 -99 -14 -15 -132 -211 -262
      -437 -130 -225 -272 -471 -315 -545 -360 -623 -326 -558 -340 -644 -14 -77 3
      -174 41 -242 12 -22 64 -113 117 -204 52 -91 169 -293 260 -450 524 -908 498
      -867 599 -922 89 -48 110 -49 1038 -46 l870 3 57 23 c81 33 149 99 212 206
      218 367 804 1391 823 1436 25 62 31 176 12 245 -12 42 -127 244 -733 1290 -90
      155 -167 277 -191 301 -23 22 -68 54 -101 70 l-59 29 -910 2 c-855 2 -913 1
      -962 -16z m797 -338 c14 -9 72 -58 130 -108 58 -49 113 -96 122 -103 9 -7 61
      -22 115 -33 121 -25 260 -71 319 -105 24 -14 71 -57 104 -94 69 -77 66 -76
      383 -150 159 -38 207 -56 207 -79 0 -4 -6 -16 -14 -27 -14 -18 -26 -19 -264
      -15 l-250 3 -123 -43 -124 -44 -400 0 c-328 -1 -417 -4 -495 -18 -270 -47
      -466 -156 -605 -337 -48 -62 -107 -172 -127 -237 -7 -24 -16 -43 -20 -43 -15
      0 -32 155 -31 285 1 116 5 157 27 240 95 367 377 607 800 680 49 8 113 15 142
      15 30 0 54 4 54 9 0 5 -10 30 -21 56 -50 112 -7 201 71 148z m225 -1187 c161
      -33 201 -51 273 -120 l58 -55 137 -30 c143 -30 167 -41 167 -72 0 -29 -31 -36
      -190 -42 -138 -5 -149 -7 -231 -41 -110 -45 -156 -55 -262 -57 l-86 -1 -31 -55
      c-17 -30 -51 -75 -76 -98 -51 -50 -160 -125 -180 -125 -25 0 -27 29 -4 72 44
      85 88 198 77 198 -7 0 -40 -7 -75 -15 -124 -29 -209 -93 -254 -190 -19 -41
      -23 -67 -23 -145 0 -89 2 -99 34 -158 48 -88 131 -160 255 -222 56 -27 125
      -55 154 -62 90 -20 37 -33 -133 -32 -136 0 -158 3 -235 28 -209 68 -360 189
      -436 351 -104 219 -83 433 61 623 91 120 233 211 390 251 117 29 125 30 310
      26 135 -2 196 -8 300 -29z m588 -552 c-9 -149 -5 -212 21 -304 30 -108 33
      -174 10 -228 -14 -35 -14 -38 3 -47 42 -23 89 -85 112 -146 36 -97 66 -145
      151 -233 84 -89 96 -109 74 -127 -21 -17 -136 -4 -223 25 -103 35 -154 68
      -246 162 -46 46 -91 84 -101 84 -11 0 -68 -16 -129 -36 -269 -85 -497 -84
      -720 5 -44 18 -82 34 -85 37 -2 3 38 2 90 -1 238 -17 509 57 644 176 63 55
      118 174 150 321 28 129 40 159 98 235 42 56 125 126 142 120 6 -2 10 -21 9
      -43z"/>
    </g>
  </g>

  <!-- Text PT group -->
  <g id="text-pt" fill="var(--pt-sage-700, #2d3a2b)" stroke="none">
    <g transform="translate(0.000000,2480.000000) scale(0.100000,-0.100000)">
      <!-- PT text path 1 -->
      <path d="M15353 6976 l-28 -24 -3 -956 -2 -956 230 0 230 0 2 308 3 307 495 5
      495 5 65 32 c84 41 145 102 184 183 l31 65 0 385 0 385 -31 65 c-39 83 -101
      145 -184 184 l-65 31 -697 3 -696 3 -29 -25z m1148 -366 c19 -5 48 -24 65 -41
      l29 -30 3 -191 c4 -209 -1 -232 -50 -273 l-30 -25 -369 0 -369 0 0 278 c0 153
      3 282 7 285 10 11 674 8 714 -3z"/>
      <!-- PT text path 2 -->
      <path d="M17280 6810 l0 -190 320 0 320 0 0 -790 0 -790 230 0 230 0 2 788 3
      787 318 3 317 2 0 190 0 190 -870 0 -870 0 0 -190z"/>
    </g>
  </g>

  <!-- Wheat stalk path (for draw-on animation) -->
  <g id="wheat-stalk" stroke="var(--pt-wheat-soft, #e8d4a8)" stroke-width="8" 
     fill="none" stroke-linecap="round" stroke-linejoin="round">
    <!-- Stylized wheat stalk SVG path - draws from bottom to top -->
    <path id="wheat-stalk-path" 
          d="M1754 2480 
             Q1754 2200 1754 2000
             Q1754 1800 1760 1650
             Q1765 1500 1770 1400
             Q1775 1300 1775 1200
             M1775 2400 Q1780 2300 1780 2200
             M1775 2100 Q1775 2050 1780 2000
             M1775 1850 Q1780 1800 1785 1750
             M1775 1600 Q1780 1550 1785 1500
             M1775 1350 Q1780 1300 1785 1250
             M1770 1100 Q1775 1050 1780 1000
             M1765 900 Q1770 850 1775 800
             M1760 700 Q1765 650 1770 600"
          class="wheat-stalk-animate"/>
  </g>
</svg>
